<svg xmlns="http://www.w3.org/2000/svg" width="150" height="28" viewBox="0 0 150 28" fill="none">
<g clip-path="url(#clip0_8799_26533)">
<path d="M40.9045 8.91841C41.7727 9.5409 42.4154 10.4285 42.7359 11.4476V8.13836H44.8869V21.1155H42.7359V17.8062C42.4159 18.8256 41.7731 19.7133 40.9045 20.3354C40.0302 20.9657 38.9624 21.2809 37.7011 21.2809C36.5513 21.2809 35.527 21.013 34.6282 20.4772C33.7168 19.9278 32.9826 19.128 32.5131 18.173C32.0006 17.1714 31.7444 15.9933 31.7444 14.6387C31.7444 13.2841 32.0006 12.1022 32.5131 11.0931C32.9804 10.1334 33.7148 9.32901 34.6282 8.77658C35.5264 8.24142 36.5507 7.97353 37.7011 7.9729C38.9624 7.9729 40.0302 8.28807 40.9045 8.91841ZM35.1369 11.1526C34.3407 11.996 33.9427 13.1581 33.9427 14.6387C33.9427 16.1194 34.3407 17.2817 35.1369 18.1258C35.9298 18.9679 36.9882 19.3893 38.3119 19.3899C39.1119 19.4034 39.9005 19.1991 40.5934 18.799C41.2644 18.4036 41.8093 17.8259 42.1648 17.133C42.543 16.415 42.7321 15.5836 42.7321 14.6387C42.7321 13.6939 42.543 12.8587 42.1648 12.1331C41.8137 11.4372 41.2677 10.8583 40.5934 10.4671C39.8981 10.0741 39.1104 9.87401 38.3119 9.88755C36.9882 9.88755 35.9298 10.3092 35.1369 11.1526Z" fill="white"/>
<path d="M50.3944 8.13818L54.6019 18.3497L58.5022 8.13818H60.8896L53.1837 27.2611H50.749L53.4437 20.9025L47.9834 8.13818H50.3944Z" fill="white"/>
<path d="M73.2635 8.77658C74.2439 9.30786 75.0487 10.1127 75.58 11.0931C76.1398 12.1016 76.4196 13.2835 76.4196 14.6387C76.4196 15.994 76.1398 17.1721 75.58 18.173C75.0464 19.1485 74.2418 19.9488 73.2635 20.4772C72.2789 21.0137 71.1642 21.2815 69.9193 21.2809C68.6743 21.2803 67.5593 21.0124 66.5741 20.4772C65.5945 19.9466 64.7868 19.1472 64.2462 18.173C63.6789 17.1714 63.3953 15.9933 63.3953 14.6387C63.3953 13.2841 63.6789 12.1022 64.2462 11.0931C64.7845 10.114 65.5924 9.31003 66.5741 8.77658C67.5593 8.24143 68.6743 7.97353 69.9193 7.9729C71.1642 7.97227 72.2789 8.24016 73.2635 8.77658ZM67.7796 10.3839C67.1069 10.7495 66.5562 11.3045 66.1959 11.98C65.7943 12.6967 65.5936 13.5829 65.5936 14.6387C65.5936 15.6788 65.7943 16.5575 66.1959 17.2748C66.5563 17.95 67.107 18.5046 67.7796 18.8699C68.4409 19.2115 69.1744 19.3899 69.9188 19.3899C70.6632 19.3899 71.3967 19.2115 72.058 18.8699C72.7308 18.5049 73.2816 17.9502 73.6417 17.2748C74.0439 16.5568 74.245 15.6782 74.245 14.6387C74.245 13.5835 74.0439 12.6973 73.6417 11.98C73.2816 11.3043 72.7309 10.7493 72.058 10.3839C71.3967 10.0423 70.6632 9.86397 69.9188 9.86397C69.1744 9.86397 68.4409 10.0423 67.7796 10.3839Z" fill="white"/>
<path d="M90.6494 8.77655C91.5477 9.31297 92.2527 10.0851 92.7645 11.093C93.2764 12.101 93.5326 13.2828 93.5332 14.6387C93.5332 15.9946 93.277 17.1727 92.7645 18.173C92.2947 19.1277 91.5605 19.9275 90.6494 20.4772C89.7512 21.0136 88.7269 21.2815 87.5765 21.2809C86.3158 21.2809 85.2481 20.9619 84.3731 20.324C83.5121 19.7043 82.8773 18.8201 82.5653 17.8061V21.1154H80.4143V3.62354H82.5615V11.4476C82.8735 10.4339 83.5083 9.55 84.3694 8.93067C85.2443 8.29277 86.3121 7.9735 87.5727 7.97287C88.725 7.97287 89.7506 8.24076 90.6494 8.77655ZM84.6927 10.4671C84.013 10.8552 83.4622 11.4346 83.109 12.1331C82.7308 12.8586 82.5417 13.6938 82.5417 14.6387C82.5417 15.5836 82.7308 16.415 83.109 17.1329C83.4665 17.8284 84.0162 18.4067 84.6927 18.7989C85.3822 19.1964 86.1662 19.4005 86.9619 19.3899C88.3008 19.3899 89.3683 18.9685 90.1644 18.1257C90.9605 17.283 91.3586 16.1206 91.3586 14.6387C91.3586 13.158 90.9605 11.996 90.1644 11.1526C89.3683 10.3092 88.3008 9.88752 86.9619 9.88752C86.1676 9.87671 85.3846 10.0767 84.6927 10.4671Z" fill="white"/>
<path d="M98.4252 8.13818L102.633 18.3497L106.533 8.13818H108.92L101.214 27.2611H98.7798L101.474 20.9025L96.0142 8.13818H98.4252Z" fill="white"/>
<path d="M118.257 19.2243V21.1154H116.65C115.326 21.1154 114.338 20.8002 113.684 20.1698C113.03 19.5395 112.703 18.4837 112.702 17.0024V10.0056H110.764V8.13826H112.702V4.8999H114.877V8.13826H118.234V10.0056H114.877V17.0497C114.877 17.8855 115.031 18.4569 115.339 18.7639C115.646 19.0709 116.178 19.2243 116.934 19.2243H118.257Z" fill="white"/>
<path d="M133.903 15.0878H123.528C123.576 16.5698 123.997 17.6807 124.793 18.4208C125.588 19.1608 126.561 19.5311 127.712 19.5317C128.752 19.5317 129.623 19.2679 130.324 18.7403C131.014 18.2309 131.477 17.4712 131.613 16.6243H133.903C133.754 17.5116 133.386 18.3479 132.833 19.0577C132.28 19.7674 131.559 20.3284 130.735 20.69C129.868 21.0846 128.891 21.2815 127.804 21.2809C126.559 21.2809 125.455 21.013 124.495 20.4772C123.535 19.9439 122.751 19.1434 122.237 18.173C121.694 17.1714 121.422 15.9933 121.422 14.6387C121.422 13.2841 121.694 12.1022 122.237 11.0931C122.748 10.1179 123.533 9.31295 124.495 8.77658C125.455 8.24142 126.559 7.97353 127.804 7.9729C129.065 7.9729 130.164 8.24079 131.101 8.77658C132.005 9.27854 132.75 10.0237 133.252 10.9276C133.752 11.8398 134.009 12.8656 133.997 13.906C134.002 14.302 133.97 14.6976 133.903 15.0878ZM131.35 11.6367C131.012 11.0155 130.492 10.5124 129.861 10.1948C129.222 9.87788 128.517 9.71591 127.804 9.72209C126.622 9.72209 125.629 10.0886 124.826 10.8217C124.022 11.5548 123.589 12.6302 123.526 14.0478H131.822C131.872 13.0871 131.714 12.2835 131.35 11.6367Z" fill="white"/>
<path d="M13.2664 0.73877C16.7694 0.73902 20.1289 2.13076 22.6058 4.60785C25.0827 7.08494 26.4742 10.4445 26.4742 13.9475C26.474 17.4657 25.0763 20.8396 22.5886 23.3273C20.1009 25.815 16.7269 27.2127 13.2087 27.213H0V14.0052C0 10.4867 1.39771 7.11235 3.88564 4.62441C6.37358 2.13648 9.74794 0.73877 13.2664 0.73877V0.73877Z" fill="#EE3889"/>
<path d="M2.33924 25.3334V13.3954C2.33924 13.3954 1.03444 5.36807 10.7136 4.33936H19.5229C19.5229 4.33936 18.653 8.76432 13.5955 8.76432C13.5955 8.76432 7.12445 8.04385 7.12445 13.2924V21.731C7.12445 21.731 5.71281 25.0242 2.33924 25.3334Z" fill="#07B6BF"/>
</g>
<defs>
<clipPath id="clip0_8799_26533">
<rect width="150" height="26.5224" fill="white" transform="translate(0 0.73877)"/>
</clipPath>
</defs>
</svg>