<svg xmlns="http://www.w3.org/2000/svg" width="269" height="53" viewBox="0 0 269 53" fill="none">
<g clip-path="url(#clip0_8799_26657)">
<path d="M81.4539 16.5282C83.2032 17.766 84.498 19.5308 85.1436 21.5572V14.9772H89.4771V40.7804H85.1436V34.2003C84.499 36.2273 83.204 37.9924 81.4539 39.2294C79.6926 40.4827 77.5414 41.1094 75.0004 41.1094C72.6841 41.1094 70.6206 40.5767 68.8097 39.5114C66.9737 38.4189 65.4946 36.8286 64.5486 34.9298C63.5162 32.9382 63 30.5957 63 27.9023C63 25.2088 63.5162 22.8588 64.5486 20.8522C65.4901 18.944 66.9697 17.3446 68.8097 16.2462C70.6193 15.1821 72.6829 14.6494 75.0004 14.6482C77.5414 14.6482 79.6926 15.2749 81.4539 16.5282ZM69.8345 20.9707C68.2307 22.6476 67.4287 24.9582 67.4287 27.9023C67.4287 30.8464 68.2307 33.1575 69.8345 34.8358C71.432 36.5102 73.5642 37.3481 76.2309 37.3493C77.8426 37.3761 79.4314 36.97 80.8273 36.1743C82.1791 35.3883 83.2769 34.2396 83.9931 32.8618C84.755 31.4342 85.136 29.781 85.136 27.9023C85.136 26.0235 84.755 24.3628 83.9931 22.9202C83.2856 21.5364 82.1857 20.3855 80.8273 19.6077C79.4266 18.8262 77.8397 18.4283 76.2309 18.4552C73.5642 18.4552 71.432 19.2937 69.8345 20.9707Z" fill="white"/>
<path d="M100.572 14.9768L109.049 35.2809L116.906 14.9768H121.716L106.192 53.0001H101.287L106.716 40.357L95.7152 14.9768H100.572Z" fill="white"/>
<path d="M146.645 16.2462C148.62 17.3026 150.241 18.9029 151.312 20.8522C152.439 22.8576 153.003 25.2076 153.003 27.9023C153.003 30.597 152.439 32.9395 151.312 34.9298C150.236 36.8694 148.616 38.4606 146.645 39.5114C144.661 40.5779 142.415 41.1106 139.907 41.1094C137.399 41.1081 135.153 40.5754 133.168 39.5114C131.195 38.4562 129.568 36.8667 128.478 34.9298C127.335 32.9382 126.764 30.5957 126.764 27.9023C126.764 25.2088 127.335 22.8588 128.478 20.8522C129.563 18.9055 131.19 17.3069 133.168 16.2462C135.153 15.1821 137.399 14.6494 139.907 14.6482C142.415 14.6469 144.661 15.1796 146.645 16.2462ZM135.597 19.4422C134.241 20.1692 133.132 21.2725 132.406 22.6157C131.597 24.0407 131.193 25.8029 131.193 27.9023C131.193 29.9703 131.597 31.7175 132.406 33.1438C133.132 34.4863 134.242 35.5891 135.597 36.3153C136.929 36.9947 138.407 37.3492 139.906 37.3492C141.406 37.3492 142.884 36.9947 144.216 36.3153C145.572 35.5896 146.681 34.4867 147.407 33.1438C148.217 31.7162 148.622 29.969 148.622 27.9023C148.622 25.8042 148.217 24.042 147.407 22.6157C146.681 21.2721 145.572 20.1686 144.216 19.4422C142.884 18.7628 141.406 18.4083 139.906 18.4083C138.407 18.4083 136.929 18.7628 135.597 19.4422Z" fill="white"/>
<path d="M181.67 16.2461C183.48 17.3127 184.9 18.848 185.932 20.8521C186.963 22.8562 187.479 25.2062 187.48 27.9021C187.48 30.5981 186.964 32.9406 185.932 34.9296C184.985 36.828 183.506 38.4182 181.67 39.5112C179.861 40.5778 177.797 41.1105 175.48 41.1092C172.94 41.1092 170.789 40.475 169.026 39.2067C167.292 37.9744 166.013 36.2163 165.384 34.2002V40.7802H161.051V6H165.377V21.5571C166.005 19.5415 167.284 17.784 169.019 16.5525C170.781 15.2841 172.932 14.6493 175.472 14.6481C177.794 14.6481 179.86 15.1807 181.67 16.2461ZM169.67 19.6075C168.301 20.3793 167.191 21.5312 166.48 22.9201C165.718 24.3627 165.337 26.0234 165.337 27.9021C165.337 29.7809 165.718 31.4341 166.48 32.8616C167.2 34.2445 168.307 35.3942 169.67 36.1742C171.059 36.9645 172.638 37.3704 174.242 37.3492C176.939 37.3492 179.089 36.5113 180.693 34.8356C182.297 33.1599 183.099 30.8487 183.099 27.9021C183.099 24.958 182.297 22.6475 180.693 20.9705C179.089 19.2936 176.939 18.4551 174.242 18.4551C172.641 18.4336 171.064 18.8312 169.67 19.6075Z" fill="white"/>
<path d="M197.336 14.9768L205.812 35.2809L213.669 14.9768H218.479L202.955 53.0001H198.05L203.479 40.357L192.478 14.9768H197.336Z" fill="white"/>
<path d="M237.29 37.02V40.78H234.051C231.385 40.78 229.393 40.1534 228.076 38.9C226.759 37.6467 226.1 35.5473 226.099 32.602V18.6899H222.194V14.9769H226.099V8.53784H230.48V14.9769H237.242V18.6899H230.48V32.696C230.48 34.3579 230.79 35.4941 231.409 36.1045C232.029 36.7148 233.1 37.02 234.623 37.02H237.29Z" fill="white"/>
<path d="M268.809 28.7953H247.909C248.004 31.7419 248.853 33.9509 250.456 35.4223C252.058 36.8937 254.019 37.6301 256.338 37.6313C258.433 37.6313 260.187 37.1068 261.599 36.0578C262.989 35.0449 263.921 33.5342 264.195 31.8503H268.809C268.508 33.6146 267.768 35.2774 266.654 36.6887C265.54 38.1 264.087 39.2154 262.427 39.9344C260.68 40.7189 258.712 41.1106 256.522 41.1094C254.013 41.1094 251.791 40.5767 249.856 39.5114C247.922 38.4508 246.342 36.8592 245.307 34.9298C244.212 32.9382 243.665 30.5957 243.665 27.9023C243.665 25.2088 244.212 22.8588 245.307 20.8522C246.337 18.9133 247.918 17.3127 249.856 16.2462C251.791 15.1821 254.013 14.6494 256.522 14.6482C259.062 14.6482 261.276 15.1809 263.165 16.2462C264.986 17.2443 266.487 18.726 267.498 20.5232C268.506 22.3371 269.023 24.3767 268.999 26.4453C269.009 27.2327 268.945 28.0194 268.809 28.7953ZM263.666 21.9332C262.985 20.6981 261.938 19.6977 260.665 19.0662C259.378 18.436 257.959 18.1139 256.522 18.1262C254.141 18.1262 252.141 18.855 250.522 20.3127C248.903 21.7703 248.03 23.9085 247.903 26.7273H264.618C264.717 24.8172 264.4 23.2192 263.666 21.9332Z" fill="white"/>
<path d="M26.5587 0C33.5715 0.000501993 40.297 2.7867 45.2556 7.74571C50.2143 12.7047 53 19.4304 53 26.4432C52.9995 33.4864 50.2014 40.2409 45.2211 45.2211C40.2409 50.2014 33.4864 52.9995 26.4432 53H0V26.5587C0 19.5149 2.79814 12.7596 7.77886 7.77886C12.7596 2.79814 19.5149 0 26.5587 0Z" fill="#EE3889"/>
<path d="M4.68306 49.237V25.3378C4.68306 25.3378 2.07092 9.26744 21.4481 7.20801H39.0838C39.0838 7.20801 37.3424 16.0666 27.2175 16.0666C27.2175 16.0666 14.2628 14.6242 14.2628 25.1315V42.0252C14.2628 42.0252 11.4368 48.618 4.68306 49.237Z" fill="#07B6BF"/>
</g>
<defs>
<clipPath id="clip0_8799_26657">
<rect width="269" height="53" fill="white"/>
</clipPath>
</defs>
</svg>