<svg xmlns="http://www.w3.org/2000/svg" width="39" height="40" viewBox="0 0 39 40" fill="none">
  <path d="M34.4965 32.438C36.4982 30.0315 37.8904 27.1787 38.5554 24.121C39.2203 21.0632 39.1384 17.8904 38.3166 14.8709C37.4947 11.8515 35.9571 9.07419 33.8339 6.77406C31.7106 4.47393 29.0642 2.7186 26.1184 1.65656C23.1726 0.594525 20.0141 0.257023 16.9102 0.672607C13.8062 1.08819 10.8481 2.24464 8.28606 4.04411C5.72402 5.84359 3.63342 8.23316 2.19113 11.0107C0.74883 13.7882 -0.00273556 16.8719 7.48171e-06 20.0011C0.00106008 24.5499 1.60537 28.9531 4.53142 32.438L4.50355 32.4616C4.60111 32.5786 4.71262 32.6789 4.81298 32.7945C4.93843 32.9379 5.07363 33.073 5.20326 33.2123C5.59354 33.6357 5.99497 34.0424 6.41591 34.424C6.54415 34.541 6.67656 34.6496 6.80619 34.761C7.25222 35.1454 7.7108 35.5103 8.1861 35.8501C8.24743 35.8919 8.30319 35.9462 8.36452 35.9894V35.9727C11.6291 38.2681 15.5235 39.5 19.5153 39.5C23.5072 39.5 27.4016 38.2681 30.6662 35.9727V35.9894C30.7275 35.9462 30.7818 35.8919 30.8446 35.8501C31.3185 35.5089 31.7785 35.1454 32.2245 34.761C32.3541 34.6496 32.4865 34.5396 32.6148 34.424C33.0357 34.041 33.4371 33.6357 33.8274 33.2123C33.957 33.073 34.0909 32.9379 34.2177 32.7945C34.3167 32.6789 34.4296 32.5786 34.5271 32.4602L34.4965 32.438ZM19.5139 8.8594C20.7545 8.8594 21.9672 9.22696 22.9987 9.91561C24.0301 10.6043 24.8341 11.5831 25.3088 12.7282C25.7836 13.8734 25.9078 15.1335 25.6658 16.3493C25.4237 17.565 24.8264 18.6817 23.9492 19.5582C23.072 20.4346 21.9543 21.0315 20.7376 21.2734C19.5209 21.5152 18.2597 21.3911 17.1136 20.9167C15.9675 20.4424 14.9879 19.6391 14.2987 18.6085C13.6095 17.5778 13.2416 16.3661 13.2416 15.1266C13.2416 13.4644 13.9024 11.8703 15.0787 10.695C16.255 9.51969 17.8504 8.8594 19.5139 8.8594ZM8.37288 32.438C8.39706 30.6093 9.14082 28.8637 10.4432 27.5787C11.7457 26.2938 13.5021 25.5728 15.3324 25.5719H23.6955C25.5258 25.5728 27.2822 26.2938 28.5846 27.5787C29.8871 28.8637 30.6308 30.6093 30.655 32.438C27.5981 35.1904 23.629 36.7137 19.5139 36.7137C15.3989 36.7137 11.4298 35.1904 8.37288 32.438Z" fill="#07B6BF"/>
</svg>