 <svg width="28" height="28" viewBox="0 0 28 28" fill="none" xmlns="http://www.w3.org/2000/svg"
                            >
                            <g filter="url(#filter0_d_16947_2623)">
                                <circle cx="14" cy="14" r="7" fill="white" />
                                <path
                                    d="M13.7313 18.0108C13.6069 18.0115 13.4836 17.9863 13.3684 17.9365C13.2532 17.8866 13.1484 17.8132 13.06 17.7205L9.27806 13.716C9.18991 13.6227 9.11998 13.5118 9.07227 13.3899C9.02456 13.2679 9 13.1372 9 13.0052C9 12.8732 9.02456 12.7425 9.07227 12.6205C9.11998 12.4986 9.18991 12.3878 9.27806 12.2944C9.36622 12.2011 9.47088 12.127 9.58606 12.0765C9.70124 12.026 9.82469 12 9.94936 12C10.074 12 10.1975 12.026 10.3127 12.0765C10.4279 12.127 10.5325 12.2011 10.6207 12.2944L13.7313 15.6081L16.8515 12.4246C16.9385 12.3222 17.0445 12.2399 17.1629 12.1828C17.2812 12.1258 17.4095 12.0952 17.5395 12.093C17.6696 12.0908 17.7987 12.1171 17.9187 12.1701C18.0387 12.2232 18.1471 12.3019 18.2371 12.4013C18.3271 12.5008 18.3968 12.6188 18.4417 12.748C18.4867 12.8773 18.506 13.0149 18.4984 13.1524C18.4908 13.2899 18.4565 13.4243 18.3976 13.5471C18.3388 13.6699 18.2566 13.7785 18.1563 13.8662L14.3743 17.7305C14.2014 17.907 13.9715 18.0072 13.7313 18.0108Z"
                                    fill="#07B6BF" />
                            </g>
                            <defs>
                                <filter id="filter0_d_16947_2623" x="0" y="0" width="28" height="28"
                                    filterUnits="userSpaceOnUse" color-interpolation-filters="sRGB">
                                    <feFlood flood-opacity="0" result="BackgroundImageFix" />
                                    <feColorMatrix in="SourceAlpha" type="matrix"
                                        values="0 0 0 0 0 0 0 0 0 0 0 0 0 0 0 0 0 0 127 0" result="hardAlpha" />
                                    <feOffset />
                                    <feGaussianBlur stdDeviation="3.5" />
                                    <feComposite in2="hardAlpha" operator="out" />
                                    <feColorMatrix type="matrix" values="0 0 0 0 0 0 0 0 0 0 0 0 0 0 0 0 0 0 0.23 0" />
                                    <feBlend mode="normal" in2="BackgroundImageFix"
                                        result="effect1_dropShadow_16947_2623" />
                                    <feBlend mode="normal" in="SourceGraphic" in2="effect1_dropShadow_16947_2623"
                                        result="shape" />
                                </filter>
                            </defs>
                        </svg>
