<svg width="56" height="51" viewBox="0 0 56 51" fill="none" xmlns="http://www.w3.org/2000/svg">
<path d="M52.375 26.3042V26.5308L52.5756 26.6362C54.0854 27.4295 55.125 28.9852 55.125 30.7592V37.0842C55.125 38.9155 54.0833 40.4701 52.5756 41.2622L52.375 41.3676V41.5942V44.9492C52.375 47.7671 50.0679 50.0742 47.25 50.0742H25.625V45.3242H47.25H47.625V44.9492V25.4242C47.625 14.5746 38.8496 5.79922 28 5.79922C17.1504 5.79922 8.375 14.5746 8.375 25.4242V41.8242H6C3.18211 41.8242 0.875 39.5171 0.875 36.6992V31.1992C0.875 29.3037 1.89843 27.6661 3.43488 26.7955L3.625 26.6877V26.4692C3.625 11.204 15.2993 1.32422 28 1.32422C40.8363 1.32422 52.375 11.4221 52.375 26.3042Z" fill="#07B6BF" stroke="white" stroke-width="0.75"/>
<path d="M19.7373 31.208C21.2561 31.208 22.4873 29.9768 22.4873 28.458C22.4873 26.9392 21.2561 25.708 19.7373 25.708C18.2185 25.708 16.9873 26.9392 16.9873 28.458C16.9873 29.9768 18.2185 31.208 19.7373 31.208Z" fill="#07B6BF"/>
<path d="M36.2607 31.208C37.7795 31.208 39.0107 29.9768 39.0107 28.458C39.0107 26.9392 37.7795 25.708 36.2607 25.708C34.742 25.708 33.5107 26.9392 33.5107 28.458C33.5107 29.9768 34.742 31.208 36.2607 31.208Z" fill="#07B6BF"/>
<path d="M44.4978 23.0205C43.1778 15.183 36.3578 9.18799 28.1353 9.18799C19.8028 9.18799 10.8378 16.0905 11.5528 26.9255C18.3453 24.148 23.4603 18.098 24.9178 10.728C28.5203 17.9605 35.9178 22.938 44.4978 23.0205Z" fill="#07B6BF"/>
</svg>
