<svg width="19" height="19" viewBox="0 0 19 19" fill="none" xmlns="http://www.w3.org/2000/svg">
<path fill-rule="evenodd" clip-rule="evenodd" d="M8 17.5C8 17.2348 7.89464 16.9804 7.70711 16.7929C7.51957 16.6054 7.26522 16.5 7 16.5H2V2.5H7C7.26522 2.5 7.51957 2.39464 7.70711 2.20711C7.89464 2.01957 8 1.76522 8 1.5C8 1.23478 7.89464 0.98043 7.70711 0.792893C7.51957 0.605357 7.26522 0.5 7 0.5H2C1.46957 0.5 0.960859 0.710714 0.585786 1.08579C0.210714 1.46086 0 1.96957 0 2.5V16.5C0 17.0304 0.210714 17.5391 0.585786 17.9142C0.960859 18.2893 1.46957 18.5 2 18.5H7C7.26522 18.5 7.51957 18.3946 7.70711 18.2071C7.89464 18.0196 8 17.7652 8 17.5Z" fill="#07B6BF"/>
<path d="M18.714 10.2006C18.8969 10.0146 18.9996 9.76439 19 9.50357V9.49757C18.9995 9.23335 18.8941 8.98014 18.707 8.79357L14.707 4.79357C14.6148 4.69806 14.5044 4.62188 14.3824 4.56947C14.2604 4.51706 14.1292 4.48947 13.9964 4.48832C13.8636 4.48717 13.7319 4.51247 13.609 4.56275C13.4862 4.61303 13.3745 4.68728 13.2806 4.78117C13.1867 4.87507 13.1125 4.98672 13.0622 5.10962C13.0119 5.23251 12.9866 5.36419 12.9877 5.49697C12.9889 5.62975 13.0165 5.76097 13.0689 5.88297C13.1213 6.00498 13.1975 6.11532 13.293 6.20757L15.586 8.50057H6C5.73478 8.50057 5.48043 8.60593 5.29289 8.79346C5.10536 8.981 5 9.23535 5 9.50057C5 9.76579 5.10536 10.0201 5.29289 10.2077C5.48043 10.3952 5.73478 10.5006 6 10.5006H15.586L13.293 12.7936C13.1108 12.9822 13.01 13.2348 13.0123 13.497C13.0146 13.7592 13.1198 14.01 13.3052 14.1954C13.4906 14.3808 13.7414 14.486 14.0036 14.4882C14.2658 14.4905 14.5184 14.3897 14.707 14.2076L18.707 10.2076L18.714 10.2006Z" fill="#07B6BF"/>
</svg>
