<svg width="56" height="51" viewBox="0 0 56 51" fill="none" xmlns="http://www.w3.org/2000/svg">
<path d="M38.5 11.9492V12.4492H39H50C52.7489 12.4492 55 14.7004 55 17.4492V31.1992C55 33.0145 53.9796 34.6184 52.4949 35.4992L52.25 35.6445V35.9292V44.9492C52.25 47.7256 50.0264 49.9492 47.25 49.9492H8.75C5.97364 49.9492 3.75 47.7256 3.75 44.9492V35.9567V35.6695L3.50194 35.5248C1.99609 34.6464 1 33.0732 1 31.1992V17.4492C1 14.7004 3.25114 12.4492 6 12.4492H17H17.5V11.9492V6.52279L18.45 3.36444L22.6096 1.44922H33.3795L37.1288 3.36765L38.5 6.55229V11.9492ZM22.5 5.94922H22V6.44922V11.9492V12.4492H22.5H33.5H34V11.9492V6.44922V5.94922H33.5H22.5ZM6 16.9492H5.5V17.4492V31.1992V31.6992H6H19.75H20.25V31.1992V23.4492H35.75V31.1992V31.6992H36.25H50H50.5V31.1992V17.4492V16.9492H50H6ZM30.75 34.4492H31.25V33.9492V28.4492V27.9492H30.75H25.25H24.75V28.4492V33.9492V34.4492H25.25H30.75ZM47.25 45.4492H47.75V44.9492V36.6992V36.1992H47.25H36.25H35.75V36.6992V38.9492H20.25V36.6992V36.1992H19.75H8.75H8.25V36.6992V44.9492V45.4492H8.75H47.25Z" fill="#07B6BF" stroke="white"/>
</svg>
