<svg width="150" height="27" viewBox="0 0 150 27" fill="none" xmlns="http://www.w3.org/2000/svg">
<g clip-path="url(#clip0_14107_49290)">
<path d="M40.9045 8.17988C41.7727 8.80238 42.4154 9.68995 42.7359 10.7091V7.39984H44.8869V20.3769H42.7359V17.0677C42.4159 18.0871 41.7731 18.9748 40.9045 19.5969C40.0302 20.2272 38.9624 20.5424 37.7011 20.5424C36.5513 20.5424 35.527 20.2745 34.6282 19.7387C33.7168 19.1893 32.9826 18.3895 32.5131 17.4345C32.0006 16.4329 31.7444 15.2548 31.7444 13.9002C31.7444 12.5456 32.0006 11.3637 32.5131 10.3545C32.9804 9.39485 33.7148 8.59048 34.6282 8.03806C35.5264 7.5029 36.5507 7.23501 37.7011 7.23438C38.9624 7.23438 40.0302 7.54954 40.9045 8.17988ZM35.1369 10.4141C34.3407 11.2575 33.9427 12.4195 33.9427 13.9002C33.9427 15.3809 34.3407 16.5432 35.1369 17.3872C35.9298 18.2294 36.9882 18.6507 38.3119 18.6514C39.1119 18.6648 39.9005 18.4606 40.5934 18.0604C41.2644 17.6651 41.8093 17.0874 42.1648 16.3945C42.543 15.6765 42.7321 14.8451 42.7321 13.9002C42.7321 12.9553 42.543 12.1201 42.1648 11.3946C41.8137 10.6986 41.2677 10.1198 40.5934 9.72862C39.8981 9.33558 39.1104 9.13548 38.3119 9.14903C36.9882 9.14903 35.9298 9.57072 35.1369 10.4141Z" fill="#282828"/>
<path d="M50.3944 7.39941L54.6019 17.6109L58.5022 7.39941H60.8896L53.1837 26.5223H50.749L53.4437 20.1638L47.9834 7.39941H50.3944Z" fill="#282828"/>
<path d="M73.2635 8.03806C74.2439 8.56934 75.0487 9.37415 75.58 10.3546C76.1398 11.3631 76.4196 12.545 76.4196 13.9002C76.4196 15.2554 76.1398 16.4335 75.58 17.4345C75.0464 18.41 74.2418 19.2102 73.2635 19.7387C72.2789 20.2751 71.1642 20.543 69.9193 20.5424C68.6743 20.5418 67.5593 20.2739 66.5741 19.7387C65.5945 19.2081 64.7868 18.4086 64.2462 17.4345C63.6789 16.4329 63.3953 15.2548 63.3953 13.9002C63.3953 12.5456 63.6789 11.3637 64.2462 10.3546C64.7845 9.3755 65.5924 8.57151 66.5741 8.03806C67.5593 7.5029 68.6743 7.23501 69.9193 7.23438C71.1642 7.23375 72.2789 7.50164 73.2635 8.03806ZM67.7796 9.64542C67.1069 10.011 66.5562 10.5659 66.1959 11.2414C65.7943 11.9581 65.5936 12.8444 65.5936 13.9002C65.5936 14.9403 65.7943 15.819 66.1959 16.5363C66.5563 17.2115 67.107 17.7661 67.7796 18.1313C68.4409 18.473 69.1744 18.6513 69.9188 18.6513C70.6632 18.6513 71.3967 18.473 72.058 18.1313C72.7308 17.7664 73.2816 17.2117 73.6417 16.5363C74.0439 15.8183 74.245 14.9396 74.245 13.9002C74.245 12.845 74.0439 11.9588 73.6417 11.2414C73.2816 10.5657 72.7309 10.0107 72.058 9.64542C71.3967 9.30374 70.6632 9.12545 69.9188 9.12545C69.1744 9.12545 68.4409 9.30374 67.7796 9.64542Z" fill="#282828"/>
<path d="M90.6494 8.03778C91.5477 8.5742 92.2527 9.34636 92.7645 10.3543C93.2764 11.3622 93.5326 12.5441 93.5332 13.8999C93.5332 15.2558 93.277 16.4339 92.7645 17.4342C92.2947 18.389 91.5605 19.1887 90.6494 19.7384C89.7512 20.2749 88.7269 20.5427 87.5765 20.5421C86.3158 20.5421 85.2481 20.2232 84.3731 19.5853C83.5121 18.9655 82.8773 18.0813 82.5653 17.0674V20.3766H80.4143V2.88477H82.5615V10.7088C82.8735 9.69513 83.5083 8.81123 84.3694 8.1919C85.2443 7.554 86.3121 7.23473 87.5727 7.2341C88.725 7.2341 89.7506 7.50199 90.6494 8.03778ZM84.6927 9.72835C84.013 10.1165 83.4622 10.6958 83.109 11.3943C82.7308 12.1199 82.5417 12.955 82.5417 13.8999C82.5417 14.8448 82.7308 15.6762 83.109 16.3942C83.4665 17.0897 84.0162 17.6679 84.6927 18.0602C85.3822 18.4576 86.1662 18.6618 86.9619 18.6511C88.3008 18.6511 89.3683 18.2297 90.1644 17.387C90.9605 16.5442 91.3586 15.3819 91.3586 13.8999C91.3586 12.4193 90.9605 11.2572 90.1644 10.4138C89.3683 9.57045 88.3008 9.14875 86.9619 9.14875C86.1676 9.13794 85.3846 9.33794 84.6927 9.72835Z" fill="#282828"/>
<path d="M98.4252 7.39941L102.633 17.6109L106.533 7.39941H108.92L101.214 26.5223H98.7798L101.474 20.1638L96.0142 7.39941H98.4252Z" fill="#282828"/>
<path d="M118.257 18.4856V20.3766H116.65C115.326 20.3766 114.338 20.0614 113.684 19.4311C113.03 18.8007 112.703 17.7449 112.702 16.2636V9.26687H110.764V7.3995H112.702V4.16113H114.877V7.3995H118.234V9.26687H114.877V16.3109C114.877 17.1467 115.031 17.7181 115.339 18.0251C115.646 18.3321 116.178 18.4856 116.934 18.4856H118.257Z" fill="#282828"/>
<path d="M133.903 14.3493H123.528C123.576 15.8312 123.997 16.9422 124.793 17.6822C125.588 18.4222 126.561 18.7926 127.712 18.7932C128.752 18.7932 129.623 18.5294 130.324 18.0018C131.014 17.4924 131.477 16.7327 131.613 15.8858H133.903C133.754 16.7731 133.386 17.6094 132.833 18.3191C132.28 19.0289 131.559 19.5899 130.735 19.9514C129.868 20.346 128.891 20.543 127.804 20.5424C126.559 20.5424 125.455 20.2745 124.495 19.7387C123.535 19.2053 122.751 18.4049 122.237 17.4345C121.694 16.4329 121.422 15.2548 121.422 13.9002C121.422 12.5456 121.694 11.3637 122.237 10.3545C122.748 9.3794 123.533 8.57443 124.495 8.03806C125.455 7.5029 126.559 7.23501 127.804 7.23438C129.065 7.23438 130.164 7.50227 131.101 8.03806C132.005 8.54001 132.75 9.28519 133.252 10.1891C133.752 11.1013 134.009 12.1271 133.997 13.1674C134.002 13.5635 133.97 13.9591 133.903 14.3493ZM131.35 10.8982C131.012 10.277 130.492 9.7739 129.861 9.45632C129.222 9.13935 128.517 8.97739 127.804 8.98356C126.622 8.98356 125.629 9.35011 124.826 10.0832C124.022 10.8163 123.589 11.8916 123.526 13.3093H131.822C131.872 12.3486 131.714 11.5449 131.35 10.8982Z" fill="#282828"/>
<path d="M13.2664 0C16.7694 0.000250752 20.1289 1.39199 22.6058 3.86908C25.0827 6.34618 26.4742 9.70573 26.4742 13.2087C26.474 16.7269 25.0763 20.1009 22.5886 22.5886C20.1009 25.0763 16.7269 26.474 13.2087 26.4742H0V13.2664C0 9.74794 1.39771 6.37358 3.88564 3.88564C6.37358 1.39771 9.74794 0 13.2664 0V0Z" fill="#EE3889"/>
<path d="M2.33924 24.5946V12.6567C2.33924 12.6567 1.03444 4.6293 10.7136 3.60059H19.5229C19.5229 3.60059 18.653 8.02555 13.5955 8.02555C13.5955 8.02555 7.12445 7.30508 7.12445 12.5536V20.9922C7.12445 20.9922 5.71281 24.2854 2.33924 24.5946Z" fill="#07B6BF"/>
</g>
<defs>
<clipPath id="clip0_14107_49290">
<rect width="150" height="26.5224" fill="white"/>
</clipPath>
</defs>
</svg>
