<svg width="24" height="57" viewBox="0 0 24 57" fill="none" xmlns="http://www.w3.org/2000/svg">
<path opacity="0.2" d="M24 56.5L4.31746 46.2942C1.66499 44.9189 0 42.18 0 39.1922V17.8078C0 14.82 1.66499 12.0811 4.31746 10.7058L24 0.5L24 56.5Z" fill="#07B6BF"/>
<path d="M12.6674 33.4062C12.8125 33.5625 13.0446 33.5625 13.1607 33.4062L13.7411 32.7812C13.8862 32.6562 13.8862 32.4062 13.7411 32.25L10.9263 29.3125H18.1518C18.3259 29.3125 18.5 29.1562 18.5 28.9375V28.0625C18.5 27.875 18.3259 27.6875 18.1518 27.6875H10.9263L13.7411 24.7812C13.8862 24.625 13.8862 24.375 13.7411 24.25L13.1607 23.625C13.0446 23.4688 12.8125 23.4688 12.6674 23.625L8.37277 28.25C8.22768 28.4062 8.22768 28.625 8.37277 28.7812L12.6674 33.4062ZM7.00893 34.125V22.875C7.00893 22.6875 6.83482 22.5 6.66071 22.5H5.84821C5.64509 22.5 5.5 22.6875 5.5 22.875V34.125C5.5 34.3438 5.64509 34.5 5.84821 34.5H6.66071C6.83482 34.5 7.00893 34.3438 7.00893 34.125Z" fill="#07B6BF"/>
</svg>
