<svg width="24" height="57" viewBox="0 0 24 57" fill="none" xmlns="http://www.w3.org/2000/svg">
<path opacity="0.2" d="M24 56.5L4.31746 46.2942C1.66499 44.9189 0 42.18 0 39.1922V17.8078C0 14.82 1.66499 12.0811 4.31746 10.7058L24 0.5L24 56.5Z" fill="#07B6BF"/>
<path d="M11.3326 23.5938C11.1875 23.4375 10.9554 23.4375 10.8393 23.5938L10.2589 24.2188C10.1138 24.3438 10.1138 24.5938 10.2589 24.75L13.0737 27.6875H5.84821C5.67411 27.6875 5.5 27.8438 5.5 28.0625V28.9375C5.5 29.125 5.67411 29.3125 5.84821 29.3125H13.0737L10.2589 32.2188C10.1138 32.375 10.1138 32.625 10.2589 32.75L10.8393 33.375C10.9554 33.5312 11.1875 33.5312 11.3326 33.375L15.6272 28.75C15.7723 28.5938 15.7723 28.375 15.6272 28.2188L11.3326 23.5938ZM16.9911 22.875V34.125C16.9911 34.3125 17.1652 34.5 17.3393 34.5H18.1518C18.3549 34.5 18.5 34.3125 18.5 34.125V22.875C18.5 22.6562 18.3549 22.5 18.1518 22.5H17.3393C17.1652 22.5 16.9911 22.6562 16.9911 22.875Z" fill="#07B6BF"/>
</svg>
