<svg width="27" height="27" viewBox="0 0 27 27" fill="none" xmlns="http://www.w3.org/2000/svg">
<g clip-path="url(#clip0_16077_9591)">
<path d="M13.2664 0C16.7694 0.000250752 20.1289 1.39199 22.6058 3.86908C25.0827 6.34618 26.4742 9.70573 26.4742 13.2087C26.474 16.7269 25.0763 20.1009 22.5886 22.5886C20.1009 25.0763 16.7269 26.474 13.2087 26.4742H0V13.2664C0 9.74794 1.39771 6.37358 3.88564 3.88564C6.37358 1.39771 9.74794 0 13.2664 0V0Z" fill="#EE3889"/>
<path d="M2.33911 24.5946V12.6567C2.33911 12.6567 1.03431 4.6293 10.7135 3.60059H19.5228C19.5228 3.60059 18.6529 8.02555 13.5954 8.02555C13.5954 8.02555 7.12432 7.30508 7.12432 12.5536V20.9922C7.12432 20.9922 5.71268 24.2854 2.33911 24.5946Z" fill="#07B6BF"/>
</g>
<defs>
<clipPath id="clip0_16077_9591">
<rect width="27" height="27" fill="white"/>
</clipPath>
</defs>
</svg>
