<svg xmlns="http://www.w3.org/2000/svg" width="143" height="207" viewBox="0 0 143 207" fill="none">
<path fill-rule="evenodd" clip-rule="evenodd" d="M109.191 12.2146C109.231 11.5173 109.422 10.8092 109.787 10.1304L113.382 3.44602C115.306 -0.130729 120.466 -0.0430795 122.267 3.59695L125.575 10.2813C125.888 10.9153 126.054 11.5701 126.092 12.2146H134C138.418 12.2146 142 15.7963 142 20.2146V198.499C142 202.918 138.418 206.499 134 206.499H9C4.58172 206.499 1 202.918 1 198.499V20.2146C1 15.7963 4.58172 12.2146 9 12.2146H109.191Z" fill="white"/>
<path d="M109.191 12.2146V12.7146H109.664L109.691 12.2432L109.191 12.2146ZM109.787 10.1304L110.227 10.3672L109.787 10.1304ZM113.382 3.44602L112.942 3.20917V3.20917L113.382 3.44602ZM122.267 3.59695L121.819 3.8187V3.8187L122.267 3.59695ZM125.575 10.2813L126.023 10.0596V10.0596L125.575 10.2813ZM126.092 12.2146L125.592 12.2435L125.62 12.7146H126.092V12.2146ZM109.691 12.2432C109.726 11.6181 109.897 10.9812 110.227 10.3672L109.347 9.89356C108.947 10.6372 108.736 11.4165 108.692 12.1861L109.691 12.2432ZM110.227 10.3672L113.823 3.68286L112.942 3.20917L109.347 9.89356L110.227 10.3672ZM113.823 3.68286C115.554 0.463791 120.198 0.542676 121.819 3.8187L122.715 3.37519C120.734 -0.628835 115.058 -0.725248 112.942 3.20917L113.823 3.68286ZM121.819 3.8187L125.127 10.5031L126.023 10.0596L122.715 3.37519L121.819 3.8187ZM125.127 10.5031C125.41 11.0764 125.559 11.6655 125.592 12.2435L126.591 12.1858C126.55 11.4746 126.367 10.7542 126.023 10.0596L125.127 10.5031ZM126.092 12.7146H134V11.7146H126.092V12.7146ZM134 12.7146C138.142 12.7146 141.5 16.0725 141.5 20.2146H142.5C142.5 15.5202 138.694 11.7146 134 11.7146V12.7146ZM141.5 20.2146V198.499H142.5V20.2146H141.5ZM141.5 198.499C141.5 202.641 138.142 205.999 134 205.999V206.999C138.694 206.999 142.5 203.194 142.5 198.499H141.5ZM134 205.999H9V206.999H134V205.999ZM9 205.999C4.85787 205.999 1.5 202.641 1.5 198.499H0.5C0.5 203.194 4.30558 206.999 9 206.999V205.999ZM1.5 198.499V20.2146H0.5V198.499H1.5ZM1.5 20.2146C1.5 16.0725 4.85786 12.7146 9 12.7146V11.7146C4.30558 11.7146 0.5 15.5202 0.5 20.2146H1.5ZM9 12.7146H109.191V11.7146H9V12.7146Z" fill="black" fill-opacity="0.12"/>
</svg>